<?xml version="1.0" standalone="no"?>
<!DOCTYPE svg PUBLIC "-//W3C//DTD SVG 20010904//EN"
 "http://www.w3.org/TR/2001/REC-SVG-20010904/DTD/svg10.dtd">
<svg version="1.0" xmlns="http://www.w3.org/2000/svg"
 width="128.000000pt" height="128.000000pt" viewBox="0 0 128.000000 128.000000"
 preserveAspectRatio="xMidYMid meet">
<metadata>
Created by potrace 1.11, written by Peter Selinger 2001-2013
</metadata>
<g transform="translate(0.000000,128.000000) scale(0.100000,-0.100000)"
fill="#000000" stroke="none">
<path d="M165 937 c6 -22 3 -31 -13 -43 -11 -8 -25 -29 -31 -47 -6 -17 -23
-41 -37 -52 -61 -48 -65 -54 -53 -78 21 -38 37 -48 66 -41 29 6 95 7 124 1 40
-7 89 -74 138 -187 17 -42 45 -91 60 -109 26 -30 28 -39 29 -125 2 -89 1 -94
-33 -146 -19 -29 -33 -55 -31 -58 2 -2 17 -4 33 -4 42 -1 82 39 85 86 1 21 6
40 10 42 5 3 6 9 4 13 -3 4 1 29 8 57 13 48 13 49 21 19 4 -16 12 -36 18 -43
15 -19 15 -136 0 -154 -7 -8 -11 -17 -8 -19 8 -9 85 3 79 12 -3 6 -1 16 6 24
8 10 9 19 0 35 -6 11 -8 25 -5 30 3 6 3 10 -2 10 -4 0 -9 28 -9 63 -1 34 -5
79 -9 100 l-8 38 49 -5 c27 -3 49 -5 49 -6 0 -6 122 -16 135 -10 3 1 13 3 23
5 10 2 36 13 58 25 39 20 42 20 55 3 22 -29 45 -118 39 -152 -7 -41 -35 -111
-44 -111 -7 0 -31 -43 -31 -54 0 -2 14 -6 31 -8 22 -4 33 0 40 14 6 10 14 16
19 13 11 -7 23 12 26 40 4 26 73 194 74 177 0 -7 9 -32 20 -54 24 -50 26 -110
4 -143 -21 -32 -12 -55 18 -48 45 11 59 32 52 81 -3 24 -7 79 -8 122 -1 48 -7
84 -15 94 -16 19 -9 100 14 166 33 90 36 149 11 202 -25 53 -72 73 -166 69
-200 -7 -301 -4 -391 14 -13 3 -35 7 -49 10 -14 2 -50 9 -80 15 -30 6 -67 13
-82 15 -15 2 -45 9 -68 15 -39 11 -40 12 -25 33 20 29 19 44 -6 50 -23 6 -79
-11 -79 -24 0 -19 -22 -7 -38 21 -19 34 -37 40 -29 10 7 -26 -1 -25 -31 3
l-24 22 7 -28z m1058 -304 c-5 -52 -31 -141 -43 -148 -7 -4 -7 3 0 19 5 14 7
26 4 26 -4 0 -2 6 4 13 11 13 20 54 21 100 1 15 5 27 10 27 4 0 6 -17 4 -37z"/>
</g>
</svg>
